<svg xmlns="http://www.w3.org/2000/svg" xmlns:svg="http://www.w3.org/2000/svg" id="svg35" width="64" height="64" version="1"><metadata id="metadata39"/><defs id="defs7"><linearGradient id="linearGradient4924" x1="12.897" x2="16.213" y1="18.858" y2="20.316" gradientTransform="matrix(1.925369,0,0,1.925369,0.9566632,3.1658152)" gradientUnits="userSpaceOnUse"><stop id="stop2" offset="0"/><stop id="stop4" offset="1" stop-opacity="0"/></linearGradient><filter style="color-interpolation-filters:sRGB" id="filter4776"><feFlood id="feFlood4766" flood-color="#000" flood-opacity=".498" result="flood"/><feComposite id="feComposite4768" in="flood" in2="SourceGraphic" operator="in" result="composite1"/><feGaussianBlur id="feGaussianBlur4770" in="composite1" result="blur" stdDeviation="3"/><feOffset id="feOffset4772" dx="3" dy="3" result="offset"/><feComposite id="feComposite4774" in="SourceGraphic" in2="offset" operator="over" result="composite2"/></filter><filter style="color-interpolation-filters:sRGB" id="filter4826"><feFlood id="feFlood4816" flood-color="#000" flood-opacity=".498" result="flood"/><feComposite id="feComposite4818" in="flood" in2="SourceGraphic" operator="in" result="composite1"/><feGaussianBlur id="feGaussianBlur4820" in="composite1" result="blur" stdDeviation="3"/><feOffset id="feOffset4822" dx="2.2" dy="2.2" result="offset"/><feComposite id="feComposite4824" in="SourceGraphic" in2="offset" operator="over" result="composite2"/></filter><filter style="color-interpolation-filters:sRGB" id="filter4791"><feFlood id="feFlood4781" flood-color="#000" flood-opacity=".498" result="flood"/><feComposite id="feComposite4783" in="flood" in2="SourceGraphic" operator="in" result="composite1"/><feGaussianBlur id="feGaussianBlur4785" in="composite1" result="blur" stdDeviation="3"/><feOffset id="feOffset4787" dx="2" dy="2" result="offset"/><feComposite id="feComposite4789" in="SourceGraphic" in2="offset" operator="over" result="composite2"/></filter><filter style="color-interpolation-filters:sRGB" id="filter4803"><feFlood id="feFlood4793" flood-color="#000" flood-opacity=".498" result="flood"/><feComposite id="feComposite4795" in="flood" in2="SourceGraphic" operator="in" result="composite1"/><feGaussianBlur id="feGaussianBlur4797" in="composite1" result="blur" stdDeviation="3"/><feOffset id="feOffset4799" dx="1" dy="1" result="offset"/><feComposite id="feComposite4801" in="SourceGraphic" in2="offset" operator="over" result="composite2"/></filter><filter style="color-interpolation-filters:sRGB" id="filter4803-1"><feFlood id="feFlood4793-5" flood-color="#000" flood-opacity=".498" result="flood"/><feComposite id="feComposite4795-0" in="flood" in2="SourceGraphic" operator="in" result="composite1"/><feGaussianBlur id="feGaussianBlur4797-7" in="composite1" result="blur" stdDeviation="3"/><feOffset id="feOffset4799-1" dx="1" dy="1" result="offset"/><feComposite id="feComposite4801-9" in="SourceGraphic" in2="offset" operator="over" result="composite2"/></filter><filter style="color-interpolation-filters:sRGB" id="filter4803-6"><feFlood id="feFlood4793-7" flood-color="#000" flood-opacity=".498" result="flood"/><feComposite id="feComposite4795-8" in="flood" in2="SourceGraphic" operator="in" result="composite1"/><feGaussianBlur id="feGaussianBlur4797-1" in="composite1" result="blur" stdDeviation="3"/><feOffset id="feOffset4799-9" dx="1" dy="1" result="offset"/><feComposite id="feComposite4801-7" in="SourceGraphic" in2="offset" operator="over" result="composite2"/></filter><filter style="color-interpolation-filters:sRGB" id="filter4803-6-4" width="1.33" height="1.33" x="-.16" y="-.16"><feFlood id="feFlood4793-7-4" flood-color="#000" flood-opacity=".498" result="flood"/><feComposite id="feComposite4795-8-8" in="flood" in2="SourceGraphic" operator="in" result="composite1"/><feGaussianBlur id="feGaussianBlur4797-1-0" in="composite1" result="blur" stdDeviation="3"/><feOffset id="feOffset4799-9-7" dx="1" dy="1" result="offset"/><feComposite id="feComposite4801-7-8" in="SourceGraphic" in2="offset" operator="over" result="composite2"/></filter><filter style="color-interpolation-filters:sRGB" id="filter4803-6-8" width="1.2"><feFlood id="feFlood4793-7-8" flood-color="#000" flood-opacity=".498" result="flood"/><feComposite id="feComposite4795-8-1" in="flood" in2="SourceGraphic" operator="in" result="composite1"/><feGaussianBlur id="feGaussianBlur4797-1-5" result="blur" stdDeviation="3"/><feOffset id="feOffset4799-9-3" dx="1" dy="1" result="offset"/><feComposite id="feComposite4801-7-6" in="SourceGraphic" in2="offset" operator="over" result="composite2"/></filter><filter style="color-interpolation-filters:sRGB" id="filter4803-6-4-1"><feFlood id="feFlood4793-7-4-2" flood-color="#000" flood-opacity=".498" result="flood"/><feComposite id="feComposite4795-8-8-0" in="flood" in2="SourceGraphic" operator="in" result="composite1"/><feGaussianBlur id="feGaussianBlur4797-1-0-9" in="composite1" result="blur" stdDeviation="3"/><feOffset id="feOffset4799-9-7-0" dx="1" dy="1" result="offset"/><feComposite id="feComposite4801-7-8-1" in="SourceGraphic" in2="offset" operator="over" result="composite2"/></filter><filter style="color-interpolation-filters:sRGB" id="filter4803-6-4-16" width="1.33" height="1.33" x="-.16" y="-.16"><feFlood id="feFlood4793-7-4-3" flood-color="#000" flood-opacity=".498" result="flood"/><feComposite id="feComposite4795-8-8-2" in="flood" in2="SourceGraphic" operator="in" result="composite1"/><feGaussianBlur id="feGaussianBlur4797-1-0-4" in="composite1" result="blur" stdDeviation="3"/><feOffset id="feOffset4799-9-7-1" dx="1" dy="1" result="offset"/><feComposite id="feComposite4801-7-8-5" in="SourceGraphic" in2="offset" operator="over" result="composite2"/></filter><filter style="color-interpolation-filters:sRGB" id="filter4803-6-4-0" width="1.33" height="1.33" x="-.16" y="-.16"><feFlood id="feFlood4793-7-4-0" flood-color="#000" flood-opacity=".498" result="flood"/><feComposite id="feComposite4795-8-8-1" in="flood" in2="SourceGraphic" operator="in" result="composite1"/><feGaussianBlur id="feGaussianBlur4797-1-0-49" in="composite1" result="blur" stdDeviation="3"/><feOffset id="feOffset4799-9-7-6" dx="1" dy="1" result="offset"/><feComposite id="feComposite4801-7-8-56" in="SourceGraphic" in2="offset" operator="over" result="composite2"/></filter><filter style="color-interpolation-filters:sRGB" id="filter4803-69"><feFlood id="feFlood4793-52" flood-color="#000" flood-opacity=".498" result="flood"/><feComposite id="feComposite4795-4" in="flood" in2="SourceGraphic" operator="in" result="composite1"/><feGaussianBlur id="feGaussianBlur4797-3" in="composite1" result="blur" stdDeviation="3"/><feOffset id="feOffset4799-8" dx="1" dy="1" result="offset"/><feComposite id="feComposite4801-2" in="SourceGraphic" in2="offset" operator="over" result="composite2"/></filter><filter style="color-interpolation-filters:sRGB" id="filter4803-6-4-4" width="1.33" height="1.33" x="-.16" y="-.16"><feFlood id="feFlood4793-7-4-1" flood-color="#000" flood-opacity=".498" result="flood"/><feComposite id="feComposite4795-8-8-3" in="flood" in2="SourceGraphic" operator="in" result="composite1"/><feGaussianBlur id="feGaussianBlur4797-1-0-1" in="composite1" result="blur" stdDeviation="3"/><feOffset id="feOffset4799-9-7-62" dx="1" dy="1" result="offset"/><feComposite id="feComposite4801-7-8-54" in="SourceGraphic" in2="offset" operator="over" result="composite2"/></filter></defs><polygon style="display:none;fill:#5a0e00" id="polygon13" points="309.5 462 275.5 507 300 533 304 551 318.5 569.5 340.5 583 351.5 604.5 373.5 617 395 637.5 452.5 723 488.5 788.5 502 812.5 551.5 721.5 612.5 637 628.5 616 668 619.5 707 615 713 603 688.5 578 676.5 569.5 693.5 560.5 693.5 540 732.5 497.5 664 430.5 588 333 517.5 214 500 192 386 355 328 328 304 332.5 299.5 366 318.5 403.5 338 431" display="none" transform="matrix(0.063142,0,0,0.063142,-130.96667,7.4242517)"/><polygon style="display:none;fill:#5a0e00" id="polygon15" points="318.5 569.5 340.5 583 351.5 604.5 373.5 617 395 637.5 452.5 723 488.5 788.5 502 812.5 551.5 721.5 612.5 637 628.5 616 668 619.5 707 615 713 603 688.5 578 676.5 569.5 693.5 560.5 693.5 540 732.5 497.5 664 430.5 588 333 517.5 214 500 192 386 355 328 328 304 332.5 299.5 366 318.5 403.5 338 431 309.5 462 275.5 507 300 533 304 551" display="none" transform="matrix(0.063142,0,0,0.063142,-187.10667,3.8412517)"/><g id="g940"><g id="g930"><ellipse style="opacity:.83999999;fill:#ccc;fill-opacity:.84313726;stroke:#008bae;stroke-width:.95300001;stroke-miterlimit:4;stroke-dasharray:none;stroke-dashoffset:0;stroke-opacity:1;filter:url(#filter4803-6-4)" id="ellipse4790-0-5" cx="31.556" cy="31.969" rx="27.805" ry="26.851" transform="matrix(0.86532116,0,0,0.89595175,4.4533609,3.1168514)"/><path style="fill:#333;fill-opacity:1;stroke:none;stroke-width:1.97000885;stroke-miterlimit:4;stroke-dasharray:none;stroke-dashoffset:0;stroke-opacity:1;enable-background:new" id="path83614-2-5-6-1-7-4-6-5-2" d="m 30.035162,14.134486 c 5.955062,0 10.153481,2.13123 13.538455,6.895274 v -6.081237 h 4.639827 v 34.287802 h -4.639827 v -6.01773 c -3.635711,4.889413 -7.395081,6.833695 -13.224766,6.833695 -10.531053,0 -18.366894,-7.646986 -18.366894,-17.864609 0,-10.280309 7.772898,-18.053195 18.053205,-18.053195 z m 0.125093,4.262641 c -7.459494,0 -13.476872,6.017381 -13.476872,13.476873 0,7.835606 5.954126,13.915647 13.72705,13.915647 7.396808,0 13.163184,-6.081152 13.163184,-13.854065 0,-7.647553 -5.891186,-13.538455 -13.413362,-13.538455 z" transform="matrix(0.93136069,0,0,0.93136069,1.9558573,1.9558892)"/></g><path id="path83614-2-1-9-1-1-5-0-1-5" d="M 31.75904,6.9617989 C 18.048782,6.9624256 6.9347772,18.071168 6.934906,31.774209 6.9347851,45.477235 18.048782,56.585979 31.75904,56.586605 45.470028,56.587014 56.585167,45.477967 56.585046,31.774209 56.585167,18.070437 45.470028,6.9613892 31.75904,6.9617989 Z" style="fill:none;fill-opacity:.99215686;stroke:#333;stroke-width:.70310062;stroke-miterlimit:4;stroke-dasharray:none;stroke-dashoffset:0;stroke-opacity:1;enable-background:new"/></g></svg>