<svg xmlns="http://www.w3.org/2000/svg" xmlns:svg="http://www.w3.org/2000/svg" id="svg8" width="64" height="64" version="1.1" viewBox="0 0 16.933 16.933"><metadata id="metadata5"/><g id="layer1" transform="translate(0,-280.06665)"><g id="g83628" transform="matrix(0.05709354,0,0,0.05703853,9.6034111,278.29442)"><path style="fill:#999;fill-opacity:1;stroke:none;stroke-width:1.97198141;stroke-miterlimit:4;stroke-dasharray:none;stroke-dashoffset:0;stroke-opacity:1" id="path83605" d="M 32.072266 0.36132812 A 31.819802 31.819805 0 0 0 0.25195312 32.179688 A 31.819802 31.819805 0 0 0 32.072266 64 A 31.819802 31.819805 0 0 0 63.892578 32.179688 A 31.819802 31.819805 0 0 0 32.072266 0.36132812 z M 28.103516 12.164062 L 36.228516 12.164062 C 38.103516 12.164063 39.811849 12.799479 41.353516 14.070312 C 42.895182 15.341146 43.666016 16.903646 43.666016 18.757812 L 43.666016 52.195312 L 38.009766 52.195312 L 38.009766 35.195312 L 26.134766 35.195312 L 26.134766 52.195312 L 20.478516 52.195312 L 20.478516 18.757812 C 20.478516 16.861979 21.270182 15.289063 22.853516 14.039062 C 24.436849 12.789062 26.186849 12.164062 28.103516 12.164062 z M 28.478516 17.101562 C 27.666016 17.101562 27.072266 17.361979 26.697266 17.882812 C 26.322266 18.403646 26.134766 19.039062 26.134766 19.789062 L 26.134766 30.382812 L 38.009766 30.382812 L 38.009766 19.789062 C 38.009766 19.039062 37.791016 18.403646 37.353516 17.882812 C 36.936849 17.361979 36.332682 17.101562 35.541016 17.101562 L 28.478516 17.101562 z" transform="matrix(4.6342079,0,0,4.6386773,-168.20486,31.070752)"/></g></g></svg>