<svg xmlns="http://www.w3.org/2000/svg" xmlns:svg="http://www.w3.org/2000/svg" id="svg4" width="64" height="64" version="1.1" viewBox="0 0 64 64"><metadata id="metadata10"/><path style="fill:#ccc;stroke-width:4.51514673" id="path3944" d="M 5.8955924,0.69027759 33.114513,16.391016 60.333434,32.091754 33.126236,47.813478 5.9190394,63.535202 5.9073164,32.112739 Z m 2.357128,17.35660741 8.95e-4,4.608962 17.4518166,5.647014 0.0015,6.806957 -17.4477346,5.983779 8.95e-4,4.608962 10.1783846,-3.557307 0.0022,3.458148 4.36168,-0.0433 -0.0015,-4.933274 2.907929,-1.023346 0.002,5.927739 4.363633,-0.04335 -0.0034,-7.404766 18.902627,-6.609773 -18.905209,-6.238268 -0.0033,-7.402815 -4.36168,0.0433 0.002,5.925786 -2.908896,-0.963631 -0.0015,-4.933274 -4.363683,0.0414 0.0022,3.458148 z m 21.8151916,11.668229 5.818675,1.88621 -5.816976,2.003737 z"/></svg>