<svg xmlns="http://www.w3.org/2000/svg" xmlns:svg="http://www.w3.org/2000/svg" id="svg4" width="64" height="64" version="1.1" viewBox="0 0 64 64"><metadata id="metadata10"/><path id="path2" d="m 32.285346,47.784705 c -3.413695,-4.283348 6.759764,-8.037873 6.094338,-11.25005 -3.049874,-11.901942 -5.145626,-11.38324 -8.195501,0.518703 -0.737108,3.2798 2.235335,2.675869 -1.106677,6.892946 z m 18.684705,9.904313 C 45.281461,60.165435 39.653733,56.217506 34.834797,50.86298 48.88721,33.271092 41.071147,23.8131 32.285346,23.8131 c -7.427897,0 -11.51784,6.290446 -9.911077,13.592566 0.937279,3.947929 3.412342,8.438208 7.361625,13.457314 -4.399663,4.87574 -8.189351,7.126293 -11.516487,7.427895 C 11.456937,59.295781 6.1673324,52.737534 8.5761249,45.971011 10.618391,40.674642 23.686188,14.704049 24.247473,13.30016 c 2.130179,-4.0669454 3.456975,-7.7633137 8.031109,-7.7633137 4.373967,0 5.869825,3.5083717 8.165008,8.0973817 4.868979,9.551312 12.084532,24.004065 15.532044,32.336783 1.781233,4.472696 -0.185294,9.641928 -5.005583,11.718007 z m 6.35672,-18.410149 C 39.895829,2.1799566 38.930149,1.6484255 32.285346,1.6484255 c -6.156553,0 -8.773629,4.2833478 -11.450215,9.8448035 C 6.4770535,40.208031 5.0853372,44.277685 4.9649649,44.632038 1.553975,54.008879 8.5815338,62.240162 17.08737,62.240162 c 2.936264,0 8.197467,-0.819613 15.197976,-8.439565 7.936435,8.626205 13.695354,8.439565 15.197975,8.439565 8.505834,0.0068 15.533395,-8.231283 12.1197,-17.608124 0.0028,-0.52612 -2.274892,-5.2612 -2.274892,-5.353169 z" style="fill:#ccc;stroke-width:.13524941"/></svg>