<svg xmlns="http://www.w3.org/2000/svg" xmlns:svg="http://www.w3.org/2000/svg" id="Capa_1" width="64" height="64" x="0" y="0" version="1.1" viewBox="0 0 64 64" xml:space="preserve"><metadata id="metadata47"/><g id="g10" transform="translate(0,-362.66699)"><g id="g8"><g id="g6"><path id="path2" d="m 31.99978,378.66622 c -8.831994,0 -15.999889,7.16791 -15.999889,15.99993 0,8.83201 7.167895,15.99993 15.999889,15.99993 8.831993,0 16.000183,-7.16821 16.000183,-16.00023 0,-8.83201 -7.16819,-15.99963 -16.000183,-15.99963 z m 0,8.47443 a 7.5254235,7.5254411 0 0 1 7.525482,7.5255 7.5254235,7.5254411 0 0 1 -7.525482,7.5255 7.5254235,7.5254411 0 0 1 -7.52519,-7.5255 7.5254235,7.5254411 0 0 1 7.52519,-7.5255 z" style="fill:#ccc;stroke-width:.15000007"/><path id="path4" d="M 31.999925,362.666 C 14.320039,362.666 0,376.98607 0,394.666 c 0,17.67993 14.320039,32 31.999925,32 17.679886,0 32.000075,-14.31992 32.000075,-32 0,-17.68008 -14.320039,-32 -32.000075,-32 z m 0,57.60009 c -14.143939,0 -25.60003,-11.45597 -25.60003,-25.60009 0,-14.14412 11.456091,-25.59994 25.60003,-25.59994 14.143939,0 25.60003,11.45597 25.60003,25.59994 0,14.14397 -11.455941,25.60009 -25.60003,25.60009 z" style="fill:#ccc;stroke-width:.15000007"/></g></g></g></svg>