<svg xmlns="http://www.w3.org/2000/svg" xmlns:svg="http://www.w3.org/2000/svg" id="svg4" width="64" height="64" version="1.1" viewBox="0 0 64 64"><metadata id="metadata10"/><path id="path2" d="M 62.973476,58.35182 42.722825,37.825276 c 2.758944,-3.848728 4.400516,-8.580316 4.400516,-13.684365 0,-12.842885 -10.304657,-23.29928035 -22.96821,-23.29928035 C 11.477782,0.82783065 1.1731261,11.284235 1.1731261,24.127115 1.1731261,36.97 11.477782,47.4264 24.141336,47.4264 c 5.490299,0 10.525371,-1.958847 14.484457,-5.2282 L 58.766085,62.628185 Z M 24.141336,42.046457 c -9.739073,0 -17.6710373,-8.042317 -17.6710373,-17.919342 0,-9.877019 7.9319643,-17.9193374 17.6710373,-17.9193374 9.739073,0 17.671037,8.0423184 17.671037,17.9193374 0,9.877025 -7.91817,17.919342 -17.671037,17.919342 z" style="stroke-width:.1379472;fill:#ccc"/></svg>