<svg xmlns="http://www.w3.org/2000/svg" xmlns:svg="http://www.w3.org/2000/svg" id="svg4" width="64" height="64" version="1.1" viewBox="0 0 64 64"><metadata id="metadata10"/><path id="path2" d="m 13.582905,41.148575 c 8.561546,-5.077774 15.962046,-8.643145 22.9118,-11.310116 4.693523,1.252616 9.227401,2.809164 13.630101,4.64229 C 42.78963,36.176744 35.91468,37.89591 29.245684,41.880766 24.184313,40.872076 18.981429,41.354309 13.582905,41.148575 Z m 10.082232,6.832876 -0.260222,13.005799 c -0.01815,0.907061 1.017287,1.486192 1.754101,0.942517 7.695241,-5.737282 16.638858,-9.676626 26.393233,-12.273522 l 0.288982,-14.44314 c -9.771674,2.066056 -18.765519,5.027182 -27.232739,10.972377 -0.566564,0.407476 -0.929393,1.098233 -0.943355,1.795969 z M 11.518444,41.065384 c 15.26236,-9.257436 33.0868,-17.486395 51.739252,-18.257929 L 63.575156,6.9409324 C 44.284134,8.2301913 26.404158,15.746051 11.821945,25.896605 Z M 2.6625081,5.736137 C 1.7085611,5.9683352 1.0348197,6.8483128 1.0152749,7.825145 L 0.7687325,20.147167 c -0.014798,0.739597 0.6726074,1.269879 1.4155584,1.117221 C 8.710093,19.552202 15.573316,18.419131 22.632178,17.974036 34.79573,11.488538 47.73598,7.3499521 60.674535,6.0871573 52.276041,3.7133892 42.115618,2.1838631 32.417085,1.9898142 22.146408,1.7843153 12.134997,3.2731999 2.6625081,5.736137 Z" style="stroke-width:.13957517;fill:#ccc"/></svg>